<mxfile host="app.diagrams.net" agent="Mozilla/5.0 (Windows NT 10.0; Win64; x64) AppleWebKit/537.36 (KHTML, like Gecko) Chrome/130.0.0.0 Safari/537.36" version="24.8.2">
  <diagram name="Side-1" id="5EiDSMVF_ckPQD6bd7NJ">
    <mxGraphModel dx="2022" dy="622" grid="1" gridSize="5" guides="1" tooltips="1" connect="1" arrows="1" fold="1" page="1" pageScale="1" pageWidth="827" pageHeight="1169" math="0" shadow="0">
      <root>
        <mxCell id="0" />
        <mxCell id="1" parent="0" />
        <mxCell id="NuFj_WlURmycuzml55bR-6" value="&lt;font style=&quot;font-size: 18px;&quot;&gt;External Memory Read/Write&lt;/font&gt;" style="swimlane;whiteSpace=wrap;html=1;startSize=40;" vertex="1" parent="1">
          <mxGeometry x="260" y="80" width="340" height="320" as="geometry" />
        </mxCell>
        <mxCell id="NuFj_WlURmycuzml55bR-20" value="&lt;font style=&quot;font-size: 14px;&quot;&gt;IO_BUF_CTRL&lt;/font&gt;" style="text;html=1;align=center;verticalAlign=middle;whiteSpace=wrap;rounded=0;" vertex="1" parent="NuFj_WlURmycuzml55bR-6">
          <mxGeometry x="230" y="100" width="110" height="20" as="geometry" />
        </mxCell>
        <mxCell id="NuFj_WlURmycuzml55bR-24" value="&lt;font style=&quot;font-size: 14px;&quot;&gt;ExtMemDataToRam&lt;/font&gt;" style="text;html=1;align=center;verticalAlign=middle;whiteSpace=wrap;rounded=0;" vertex="1" parent="NuFj_WlURmycuzml55bR-6">
          <mxGeometry x="200" y="65" width="140" height="20" as="geometry" />
        </mxCell>
        <mxCell id="NuFj_WlURmycuzml55bR-28" value="&lt;font style=&quot;font-size: 14px;&quot;&gt;ExtMemDataFromRam&lt;/font&gt;" style="text;html=1;align=center;verticalAlign=middle;whiteSpace=wrap;rounded=0;" vertex="1" parent="NuFj_WlURmycuzml55bR-6">
          <mxGeometry x="180" y="135" width="160" height="20" as="geometry" />
        </mxCell>
        <mxCell id="NuFj_WlURmycuzml55bR-31" value="&lt;font style=&quot;font-size: 14px;&quot;&gt;ExtMemAdrToRam&lt;/font&gt;" style="text;html=1;align=center;verticalAlign=middle;whiteSpace=wrap;rounded=0;" vertex="1" parent="NuFj_WlURmycuzml55bR-6">
          <mxGeometry x="210" y="180" width="130" height="20" as="geometry" />
        </mxCell>
        <mxCell id="NuFj_WlURmycuzml55bR-33" value="&lt;font style=&quot;font-size: 14px;&quot;&gt;Ext_Mem_nCE_ext&lt;/font&gt;" style="text;html=1;align=center;verticalAlign=middle;whiteSpace=wrap;rounded=0;" vertex="1" parent="NuFj_WlURmycuzml55bR-6">
          <mxGeometry x="200" y="210" width="140" height="20" as="geometry" />
        </mxCell>
        <mxCell id="NuFj_WlURmycuzml55bR-36" value="&lt;font style=&quot;font-size: 14px;&quot;&gt;Ext_Mem_nOE_ext&lt;/font&gt;" style="text;html=1;align=center;verticalAlign=middle;whiteSpace=wrap;rounded=0;" vertex="1" parent="NuFj_WlURmycuzml55bR-6">
          <mxGeometry x="200" y="230" width="140" height="20" as="geometry" />
        </mxCell>
        <mxCell id="NuFj_WlURmycuzml55bR-37" value="&lt;font style=&quot;font-size: 14px;&quot;&gt;Ext_Mem_nWE_ext&lt;/font&gt;" style="text;html=1;align=center;verticalAlign=middle;whiteSpace=wrap;rounded=0;" vertex="1" parent="NuFj_WlURmycuzml55bR-6">
          <mxGeometry x="200" y="250" width="140" height="20" as="geometry" />
        </mxCell>
        <mxCell id="NuFj_WlURmycuzml55bR-50" value="&lt;font style=&quot;font-size: 14px;&quot;&gt;SampleByteToRam&lt;/font&gt;" style="text;html=1;align=center;verticalAlign=middle;whiteSpace=wrap;rounded=0;" vertex="1" parent="NuFj_WlURmycuzml55bR-6">
          <mxGeometry y="65" width="135" height="20" as="geometry" />
        </mxCell>
        <mxCell id="NuFj_WlURmycuzml55bR-51" value="&lt;font style=&quot;font-size: 14px;&quot;&gt;SampleByteFromRam&lt;/font&gt;" style="text;html=1;align=center;verticalAlign=middle;whiteSpace=wrap;rounded=0;" vertex="1" parent="NuFj_WlURmycuzml55bR-6">
          <mxGeometry y="90" width="155" height="20" as="geometry" />
        </mxCell>
        <mxCell id="NuFj_WlURmycuzml55bR-52" value="&lt;font style=&quot;font-size: 14px;&quot;&gt;SampleRW&lt;/font&gt;" style="text;html=1;align=center;verticalAlign=middle;whiteSpace=wrap;rounded=0;" vertex="1" parent="NuFj_WlURmycuzml55bR-6">
          <mxGeometry y="115" width="85" height="20" as="geometry" />
        </mxCell>
        <mxCell id="NuFj_WlURmycuzml55bR-53" value="&lt;font style=&quot;font-size: 14px;&quot;&gt;SampleAddr&lt;/font&gt;" style="text;html=1;align=center;verticalAlign=middle;whiteSpace=wrap;rounded=0;" vertex="1" parent="NuFj_WlURmycuzml55bR-6">
          <mxGeometry y="140" width="95" height="20" as="geometry" />
        </mxCell>
        <mxCell id="NuFj_WlURmycuzml55bR-54" value="&lt;font style=&quot;font-size: 14px;&quot;&gt;CLK&lt;/font&gt;" style="text;html=1;align=center;verticalAlign=middle;whiteSpace=wrap;rounded=0;" vertex="1" parent="NuFj_WlURmycuzml55bR-6">
          <mxGeometry y="165" width="45" height="20" as="geometry" />
        </mxCell>
        <mxCell id="NuFj_WlURmycuzml55bR-7" value="&lt;font style=&quot;font-size: 18px;&quot;&gt;IO Buffer&lt;/font&gt;" style="swimlane;whiteSpace=wrap;html=1;startSize=40;" vertex="1" parent="1">
          <mxGeometry x="690" y="90" width="110" height="160" as="geometry" />
        </mxCell>
        <mxCell id="NuFj_WlURmycuzml55bR-23" style="edgeStyle=orthogonalEdgeStyle;rounded=0;orthogonalLoop=1;jettySize=auto;html=1;entryX=0;entryY=0.5;entryDx=0;entryDy=0;" edge="1" parent="1" source="NuFj_WlURmycuzml55bR-9" target="NuFj_WlURmycuzml55bR-16">
          <mxGeometry relative="1" as="geometry">
            <Array as="points">
              <mxPoint x="820" y="155" />
              <mxPoint x="820" y="190" />
            </Array>
          </mxGeometry>
        </mxCell>
        <mxCell id="NuFj_WlURmycuzml55bR-9" value="" style="triangle;whiteSpace=wrap;html=1;" vertex="1" parent="1">
          <mxGeometry x="725" y="140" width="30" height="30" as="geometry" />
        </mxCell>
        <mxCell id="NuFj_WlURmycuzml55bR-30" style="edgeStyle=orthogonalEdgeStyle;rounded=0;orthogonalLoop=1;jettySize=auto;html=1;entryX=1;entryY=0.5;entryDx=0;entryDy=0;" edge="1" parent="1" source="NuFj_WlURmycuzml55bR-10" target="NuFj_WlURmycuzml55bR-28">
          <mxGeometry relative="1" as="geometry" />
        </mxCell>
        <mxCell id="NuFj_WlURmycuzml55bR-10" value="" style="triangle;whiteSpace=wrap;html=1;direction=west;" vertex="1" parent="1">
          <mxGeometry x="725" y="210" width="30" height="30" as="geometry" />
        </mxCell>
        <mxCell id="NuFj_WlURmycuzml55bR-11" value="" style="ellipse;whiteSpace=wrap;html=1;aspect=fixed;" vertex="1" parent="1">
          <mxGeometry x="740" y="160" width="10" height="10" as="geometry" />
        </mxCell>
        <mxCell id="NuFj_WlURmycuzml55bR-12" style="edgeStyle=orthogonalEdgeStyle;rounded=0;orthogonalLoop=1;jettySize=auto;html=1;exitX=0.5;exitY=1;exitDx=0;exitDy=0;entryX=0.335;entryY=0.818;entryDx=0;entryDy=0;entryPerimeter=0;startArrow=classic;startFill=1;" edge="1" parent="1" source="NuFj_WlURmycuzml55bR-11" target="NuFj_WlURmycuzml55bR-10">
          <mxGeometry relative="1" as="geometry" />
        </mxCell>
        <mxCell id="NuFj_WlURmycuzml55bR-14" value="&lt;font style=&quot;font-size: 18px;&quot;&gt;External&lt;br&gt;&amp;nbsp;Memory&lt;/font&gt;" style="swimlane;whiteSpace=wrap;html=1;startSize=50;" vertex="1" parent="1">
          <mxGeometry x="880" y="80" width="90" height="280" as="geometry" />
        </mxCell>
        <mxCell id="NuFj_WlURmycuzml55bR-16" value="&lt;span style=&quot;font-size: 14px;&quot;&gt;DATA&lt;/span&gt;" style="text;html=1;align=center;verticalAlign=middle;whiteSpace=wrap;rounded=0;" vertex="1" parent="NuFj_WlURmycuzml55bR-14">
          <mxGeometry y="100" width="50" height="20" as="geometry" />
        </mxCell>
        <mxCell id="NuFj_WlURmycuzml55bR-15" value="&lt;font style=&quot;font-size: 14px;&quot;&gt;Addr&lt;/font&gt;" style="text;html=1;align=center;verticalAlign=middle;whiteSpace=wrap;rounded=0;" vertex="1" parent="NuFj_WlURmycuzml55bR-14">
          <mxGeometry y="180" width="50" height="20" as="geometry" />
        </mxCell>
        <mxCell id="NuFj_WlURmycuzml55bR-18" value="&lt;font style=&quot;font-size: 14px;&quot;&gt;nCE&lt;/font&gt;" style="text;html=1;align=center;verticalAlign=middle;whiteSpace=wrap;rounded=0;" vertex="1" parent="NuFj_WlURmycuzml55bR-14">
          <mxGeometry y="210" width="50" height="20" as="geometry" />
        </mxCell>
        <mxCell id="NuFj_WlURmycuzml55bR-19" value="&lt;font style=&quot;font-size: 14px;&quot;&gt;nOE&lt;/font&gt;" style="text;html=1;align=center;verticalAlign=middle;whiteSpace=wrap;rounded=0;" vertex="1" parent="NuFj_WlURmycuzml55bR-14">
          <mxGeometry y="230" width="53" height="20" as="geometry" />
        </mxCell>
        <mxCell id="NuFj_WlURmycuzml55bR-17" value="&lt;font style=&quot;font-size: 14px;&quot;&gt;nWE&lt;/font&gt;" style="text;html=1;align=center;verticalAlign=middle;whiteSpace=wrap;rounded=0;" vertex="1" parent="NuFj_WlURmycuzml55bR-14">
          <mxGeometry y="250" width="50" height="20" as="geometry" />
        </mxCell>
        <mxCell id="NuFj_WlURmycuzml55bR-21" style="edgeStyle=orthogonalEdgeStyle;rounded=0;orthogonalLoop=1;jettySize=auto;html=1;exitX=1;exitY=0.5;exitDx=0;exitDy=0;entryX=0.5;entryY=1;entryDx=0;entryDy=0;startArrow=none;startFill=0;" edge="1" parent="1" source="NuFj_WlURmycuzml55bR-20" target="NuFj_WlURmycuzml55bR-11">
          <mxGeometry relative="1" as="geometry" />
        </mxCell>
        <mxCell id="NuFj_WlURmycuzml55bR-22" style="edgeStyle=orthogonalEdgeStyle;rounded=0;orthogonalLoop=1;jettySize=auto;html=1;exitX=0;exitY=0.5;exitDx=0;exitDy=0;entryX=0;entryY=0.5;entryDx=0;entryDy=0;" edge="1" parent="1" source="NuFj_WlURmycuzml55bR-16" target="NuFj_WlURmycuzml55bR-10">
          <mxGeometry relative="1" as="geometry">
            <Array as="points">
              <mxPoint x="820" y="190" />
              <mxPoint x="820" y="225" />
            </Array>
          </mxGeometry>
        </mxCell>
        <mxCell id="NuFj_WlURmycuzml55bR-27" style="edgeStyle=orthogonalEdgeStyle;rounded=0;orthogonalLoop=1;jettySize=auto;html=1;entryX=0;entryY=0.5;entryDx=0;entryDy=0;" edge="1" parent="1" source="NuFj_WlURmycuzml55bR-24" target="NuFj_WlURmycuzml55bR-9">
          <mxGeometry relative="1" as="geometry" />
        </mxCell>
        <mxCell id="NuFj_WlURmycuzml55bR-32" style="edgeStyle=orthogonalEdgeStyle;rounded=0;orthogonalLoop=1;jettySize=auto;html=1;entryX=0;entryY=0.5;entryDx=0;entryDy=0;" edge="1" parent="1" source="NuFj_WlURmycuzml55bR-31" target="NuFj_WlURmycuzml55bR-15">
          <mxGeometry relative="1" as="geometry" />
        </mxCell>
        <mxCell id="NuFj_WlURmycuzml55bR-38" style="edgeStyle=orthogonalEdgeStyle;rounded=0;orthogonalLoop=1;jettySize=auto;html=1;entryX=0;entryY=0.5;entryDx=0;entryDy=0;" edge="1" parent="1" source="NuFj_WlURmycuzml55bR-33" target="NuFj_WlURmycuzml55bR-18">
          <mxGeometry relative="1" as="geometry" />
        </mxCell>
        <mxCell id="NuFj_WlURmycuzml55bR-39" style="edgeStyle=orthogonalEdgeStyle;rounded=0;orthogonalLoop=1;jettySize=auto;html=1;entryX=0;entryY=0.5;entryDx=0;entryDy=0;" edge="1" parent="1" source="NuFj_WlURmycuzml55bR-36" target="NuFj_WlURmycuzml55bR-19">
          <mxGeometry relative="1" as="geometry" />
        </mxCell>
        <mxCell id="NuFj_WlURmycuzml55bR-40" style="edgeStyle=orthogonalEdgeStyle;rounded=0;orthogonalLoop=1;jettySize=auto;html=1;entryX=0;entryY=0.5;entryDx=0;entryDy=0;" edge="1" parent="1" source="NuFj_WlURmycuzml55bR-37" target="NuFj_WlURmycuzml55bR-17">
          <mxGeometry relative="1" as="geometry" />
        </mxCell>
        <mxCell id="NuFj_WlURmycuzml55bR-41" value="" style="endArrow=none;html=1;rounded=0;" edge="1" parent="1">
          <mxGeometry width="50" height="50" relative="1" as="geometry">
            <mxPoint x="620" y="275" as="sourcePoint" />
            <mxPoint x="630" y="265" as="targetPoint" />
          </mxGeometry>
        </mxCell>
        <mxCell id="NuFj_WlURmycuzml55bR-42" value="&lt;font style=&quot;font-size: 14px;&quot;&gt;19&lt;/font&gt;" style="text;html=1;align=center;verticalAlign=middle;whiteSpace=wrap;rounded=0;" vertex="1" parent="1">
          <mxGeometry x="610" y="250" width="20" height="20" as="geometry" />
        </mxCell>
        <mxCell id="NuFj_WlURmycuzml55bR-43" value="" style="endArrow=none;html=1;rounded=0;" edge="1" parent="1">
          <mxGeometry width="50" height="50" relative="1" as="geometry">
            <mxPoint x="670" y="230" as="sourcePoint" />
            <mxPoint x="680" y="220" as="targetPoint" />
          </mxGeometry>
        </mxCell>
        <mxCell id="NuFj_WlURmycuzml55bR-44" value="&lt;font style=&quot;font-size: 14px;&quot;&gt;8&lt;/font&gt;" style="text;html=1;align=center;verticalAlign=middle;whiteSpace=wrap;rounded=0;" vertex="1" parent="1">
          <mxGeometry x="660" y="205" width="20" height="20" as="geometry" />
        </mxCell>
        <mxCell id="NuFj_WlURmycuzml55bR-45" value="" style="endArrow=none;html=1;rounded=0;" edge="1" parent="1">
          <mxGeometry width="50" height="50" relative="1" as="geometry">
            <mxPoint x="620" y="160" as="sourcePoint" />
            <mxPoint x="630" y="150" as="targetPoint" />
          </mxGeometry>
        </mxCell>
        <mxCell id="NuFj_WlURmycuzml55bR-46" value="&lt;font style=&quot;font-size: 14px;&quot;&gt;8&lt;/font&gt;" style="text;html=1;align=center;verticalAlign=middle;whiteSpace=wrap;rounded=0;" vertex="1" parent="1">
          <mxGeometry x="610" y="135" width="20" height="20" as="geometry" />
        </mxCell>
        <mxCell id="NuFj_WlURmycuzml55bR-48" value="" style="endArrow=none;html=1;rounded=0;" edge="1" parent="1">
          <mxGeometry width="50" height="50" relative="1" as="geometry">
            <mxPoint x="837" y="195" as="sourcePoint" />
            <mxPoint x="847" y="185" as="targetPoint" />
          </mxGeometry>
        </mxCell>
        <mxCell id="NuFj_WlURmycuzml55bR-49" value="&lt;font style=&quot;font-size: 14px;&quot;&gt;8&lt;/font&gt;" style="text;html=1;align=center;verticalAlign=middle;whiteSpace=wrap;rounded=0;" vertex="1" parent="1">
          <mxGeometry x="827" y="170" width="20" height="20" as="geometry" />
        </mxCell>
        <mxCell id="NuFj_WlURmycuzml55bR-68" value="&lt;span style=&quot;font-size: 18px;&quot;&gt;Memory&lt;br&gt;Distribution&lt;/span&gt;" style="swimlane;whiteSpace=wrap;html=1;startSize=50;" vertex="1" parent="1">
          <mxGeometry x="-110" y="80" width="310" height="280" as="geometry" />
        </mxCell>
        <mxCell id="NuFj_WlURmycuzml55bR-74" value="&lt;font style=&quot;font-size: 14px;&quot;&gt;DATA_EXT_MEM_DIST_TO_EXT_MEM&lt;/font&gt;" style="text;html=1;align=center;verticalAlign=middle;whiteSpace=wrap;rounded=0;" vertex="1" parent="NuFj_WlURmycuzml55bR-68">
          <mxGeometry x="40" y="65" width="270" height="20" as="geometry" />
        </mxCell>
        <mxCell id="NuFj_WlURmycuzml55bR-78" value="&lt;font style=&quot;font-size: 14px;&quot;&gt;DATA_EXT_MEM_TO_EXT_MEM_DIST&lt;/font&gt;" style="text;html=1;align=center;verticalAlign=middle;whiteSpace=wrap;rounded=0;" vertex="1" parent="NuFj_WlURmycuzml55bR-68">
          <mxGeometry x="40" y="90" width="270" height="20" as="geometry" />
        </mxCell>
        <mxCell id="NuFj_WlURmycuzml55bR-82" value="&lt;font style=&quot;font-size: 14px;&quot;&gt;nRW_TO_EXT_MEM&lt;/font&gt;" style="text;html=1;align=center;verticalAlign=middle;whiteSpace=wrap;rounded=0;" vertex="1" parent="NuFj_WlURmycuzml55bR-68">
          <mxGeometry x="160" y="115" width="150" height="20" as="geometry" />
        </mxCell>
        <mxCell id="NuFj_WlURmycuzml55bR-86" value="&lt;font style=&quot;font-size: 14px;&quot;&gt;ADDR_EXT_MEM_DIST_TO_EXT_MEM&lt;/font&gt;" style="text;html=1;align=center;verticalAlign=middle;whiteSpace=wrap;rounded=0;" vertex="1" parent="NuFj_WlURmycuzml55bR-68">
          <mxGeometry x="35" y="140" width="275" height="20" as="geometry" />
        </mxCell>
        <mxCell id="NuFj_WlURmycuzml55bR-91" value="&lt;font style=&quot;font-size: 14px;&quot;&gt;CLK_TO_EXT_MEM_READ_WRITE&lt;/font&gt;" style="text;html=1;align=center;verticalAlign=middle;whiteSpace=wrap;rounded=0;" vertex="1" parent="NuFj_WlURmycuzml55bR-68">
          <mxGeometry x="65" y="165" width="245" height="20" as="geometry" />
        </mxCell>
        <mxCell id="NuFj_WlURmycuzml55bR-75" style="edgeStyle=orthogonalEdgeStyle;rounded=0;orthogonalLoop=1;jettySize=auto;html=1;entryX=0;entryY=0.5;entryDx=0;entryDy=0;" edge="1" parent="1" source="NuFj_WlURmycuzml55bR-74" target="NuFj_WlURmycuzml55bR-50">
          <mxGeometry relative="1" as="geometry" />
        </mxCell>
        <mxCell id="NuFj_WlURmycuzml55bR-76" value="" style="endArrow=none;html=1;rounded=0;" edge="1" parent="1">
          <mxGeometry width="50" height="50" relative="1" as="geometry">
            <mxPoint x="215" y="160" as="sourcePoint" />
            <mxPoint x="225" y="150" as="targetPoint" />
          </mxGeometry>
        </mxCell>
        <mxCell id="NuFj_WlURmycuzml55bR-77" value="&lt;font style=&quot;font-size: 14px;&quot;&gt;8&lt;/font&gt;" style="text;html=1;align=center;verticalAlign=middle;whiteSpace=wrap;rounded=0;" vertex="1" parent="1">
          <mxGeometry x="205" y="135" width="20" height="20" as="geometry" />
        </mxCell>
        <mxCell id="NuFj_WlURmycuzml55bR-79" style="edgeStyle=orthogonalEdgeStyle;rounded=0;orthogonalLoop=1;jettySize=auto;html=1;" edge="1" parent="1" source="NuFj_WlURmycuzml55bR-51" target="NuFj_WlURmycuzml55bR-78">
          <mxGeometry relative="1" as="geometry" />
        </mxCell>
        <mxCell id="NuFj_WlURmycuzml55bR-80" value="" style="endArrow=none;html=1;rounded=0;" edge="1" parent="1">
          <mxGeometry width="50" height="50" relative="1" as="geometry">
            <mxPoint x="240" y="185" as="sourcePoint" />
            <mxPoint x="250" y="175" as="targetPoint" />
          </mxGeometry>
        </mxCell>
        <mxCell id="NuFj_WlURmycuzml55bR-81" value="&lt;font style=&quot;font-size: 14px;&quot;&gt;8&lt;/font&gt;" style="text;html=1;align=center;verticalAlign=middle;whiteSpace=wrap;rounded=0;" vertex="1" parent="1">
          <mxGeometry x="230" y="160" width="20" height="20" as="geometry" />
        </mxCell>
        <mxCell id="NuFj_WlURmycuzml55bR-83" style="edgeStyle=orthogonalEdgeStyle;rounded=0;orthogonalLoop=1;jettySize=auto;html=1;entryX=0;entryY=0.5;entryDx=0;entryDy=0;" edge="1" parent="1" source="NuFj_WlURmycuzml55bR-82" target="NuFj_WlURmycuzml55bR-52">
          <mxGeometry relative="1" as="geometry" />
        </mxCell>
        <mxCell id="NuFj_WlURmycuzml55bR-84" value="" style="endArrow=none;html=1;rounded=0;" edge="1" parent="1">
          <mxGeometry width="50" height="50" relative="1" as="geometry">
            <mxPoint x="215" y="210" as="sourcePoint" />
            <mxPoint x="225" y="200" as="targetPoint" />
          </mxGeometry>
        </mxCell>
        <mxCell id="NuFj_WlURmycuzml55bR-85" value="&lt;font style=&quot;font-size: 14px;&quot;&gt;8&lt;/font&gt;" style="text;html=1;align=center;verticalAlign=middle;whiteSpace=wrap;rounded=0;" vertex="1" parent="1">
          <mxGeometry x="205" y="185" width="20" height="20" as="geometry" />
        </mxCell>
        <mxCell id="NuFj_WlURmycuzml55bR-88" style="edgeStyle=orthogonalEdgeStyle;rounded=0;orthogonalLoop=1;jettySize=auto;html=1;entryX=0;entryY=0.5;entryDx=0;entryDy=0;" edge="1" parent="1" source="NuFj_WlURmycuzml55bR-86" target="NuFj_WlURmycuzml55bR-53">
          <mxGeometry relative="1" as="geometry" />
        </mxCell>
        <mxCell id="NuFj_WlURmycuzml55bR-89" value="" style="endArrow=none;html=1;rounded=0;" edge="1" parent="1">
          <mxGeometry width="50" height="50" relative="1" as="geometry">
            <mxPoint x="215" y="235" as="sourcePoint" />
            <mxPoint x="225" y="225" as="targetPoint" />
          </mxGeometry>
        </mxCell>
        <mxCell id="NuFj_WlURmycuzml55bR-90" value="&lt;font style=&quot;font-size: 14px;&quot;&gt;19&lt;/font&gt;" style="text;html=1;align=center;verticalAlign=middle;whiteSpace=wrap;rounded=0;" vertex="1" parent="1">
          <mxGeometry x="205" y="210" width="20" height="20" as="geometry" />
        </mxCell>
        <mxCell id="NuFj_WlURmycuzml55bR-92" style="edgeStyle=orthogonalEdgeStyle;rounded=0;orthogonalLoop=1;jettySize=auto;html=1;" edge="1" parent="1" source="NuFj_WlURmycuzml55bR-91" target="NuFj_WlURmycuzml55bR-54">
          <mxGeometry relative="1" as="geometry" />
        </mxCell>
      </root>
    </mxGraphModel>
  </diagram>
</mxfile>
